<?xml version="1.0" encoding="utf-8"?>
<!-- Generator: Adobe Illustrator 22.0.0, SVG Export Plug-In . SVG Version: 6.00 Build 0)  -->
<svg version="1.1" id="Laag_1" xmlns="http://www.w3.org/2000/svg" xmlns:xlink="http://www.w3.org/1999/xlink" x="0px" y="0px"
	 viewBox="0 0 100 101" style="enable-background:new 0 0 100 101;" xml:space="preserve">
<style type="text/css">
	.st0{fill:#73D700;}
	.st1{fill:none;stroke:#73D700;stroke-width:6;stroke-miterlimit:10;}
</style>
<path class="st0" d="M50.4,5.2c25.9,0,46.9,22.1,44.9,48.5c-1.7,22-19.4,39.7-41.4,41.4c-26.4,2-48.5-18.9-48.5-44.9
	C5.4,25.4,25.6,5.2,50.4,5.2 M50.4,0.2c-28.2,0-51.1,23.5-50,52c1,25.9,22.1,47,48,48c28.5,1.1,52-21.7,52-50
	C100.4,22.6,78,0.2,50.4,0.2L50.4,0.2z"/>
<path class="st1" d="M30.6,54.9l9.5,7.7c1.3,1.1,3.3,1,4.5-0.2l25.9-25.9"/>
</svg>
