<?xml version="1.0" encoding="utf-8"?>
<!-- Generator: Adobe Illustrator 22.0.0, SVG Export Plug-In . SVG Version: 6.00 Build 0)  -->
<svg version="1.1" id="Laag_1" xmlns="http://www.w3.org/2000/svg" xmlns:xlink="http://www.w3.org/1999/xlink" x="0px" y="0px"
	 viewBox="0 0 100 101" style="enable-background:new 0 0 100 101;" xml:space="preserve">
<style type="text/css">
	.st0{fill:#FFAD00;}
</style>
<path class="st0" d="M63.4,73c-1,0-1.9-0.5-2.5-1.3l-13.4-20C47.2,51.2,47,50.6,47,50V16.7c0-1.7,1.3-3,3-3s3,1.3,3,3v32.4
	l12.9,19.2c0.9,1.4,0.6,3.2-0.8,4.2C64.5,72.8,64,73,63.4,73z"/>
<path class="st0" d="M50,5c24.8,0,45,20.2,45,45c0,24.8-20.2,45-45,45C25.2,95,5,74.8,5,50C5,25.2,25.2,5,50,5 M50,0
	C22.4,0,0,22.4,0,50s22.4,50,50,50c27.6,0,50-22.4,50-50S77.6,0,50,0L50,0z"/>
</svg>
