<?xml version="1.0" encoding="utf-8"?>
<!-- Generator: Adobe Illustrator 22.0.0, SVG Export Plug-In . SVG Version: 6.00 Build 0)  -->
<svg version="1.1" id="Laag_1" xmlns="http://www.w3.org/2000/svg" xmlns:xlink="http://www.w3.org/1999/xlink" x="0px" y="0px"
	 viewBox="0 0 100 100.6" style="enable-background:new 0 0 100 100.6;" xml:space="preserve">
<title>se r1</title>
<path d="M24,38.2c0.1-21,17.2-37.9,38.2-37.8s37.9,17.2,37.8,38.2c-0.1,20.9-17.1,37.8-38,37.8C41,76.4,24,59.3,24,38.2z M34.2,38.2
	C34.3,53.6,46.8,66,62.2,65.8C77.6,65.7,90,53.2,89.8,37.8C89.7,22.5,77.3,10.2,62,10.1C46.6,10.2,34.1,22.8,34.2,38.2L34.2,38.2z"
	/>
<rect x="-3.6" y="73.9" transform="matrix(0.7086 -0.7056 0.7056 0.7086 -49.5804 37.8907)" width="49.4" height="10.2"/>
</svg>
